<svg width="121" height="121" viewBox="0 0 121 121" fill="none" xmlns="http://www.w3.org/2000/svg">
<rect width="121" height="121" fill="#1A1010"/>
<path opacity="0.22" d="M60.7546 70.5757C61.8109 70.5612 62.7769 70.7924 63.4859 71.1848C64.191 71.575 64.667 72.1408 64.6762 72.8024C64.6853 73.4641 64.225 74.0436 63.5307 74.453C62.8328 74.8646 61.8734 75.1223 60.8172 75.1368C59.761 75.1513 58.7949 74.9199 58.0859 74.5277C57.3807 74.1375 56.9047 73.5708 56.8957 72.9091C56.8867 72.2475 57.347 71.6688 58.0411 71.2595C58.7391 70.8478 59.6984 70.5902 60.7546 70.5757Z" fill="#932724" stroke="white" stroke-width="0.268342"/>
<path opacity="0.22" d="M30.688 36.896V36.536H31.684C32.228 36.536 32.668 36.48 33.004 36.368C33.34 36.248 33.584 36.028 33.736 35.708C33.888 35.38 33.964 34.912 33.964 34.304C33.964 33.736 33.9 33.304 33.772 33.008C33.652 32.712 33.468 32.512 33.22 32.408C32.972 32.304 32.66 32.252 32.284 32.252H28.132V31.952H32.764C33.34 31.952 33.856 32.056 34.312 32.264C34.776 32.472 35.144 32.76 35.416 33.128C35.688 33.488 35.824 33.904 35.824 34.376C35.824 34.872 35.656 35.312 35.32 35.696C34.992 36.072 34.52 36.368 33.904 36.584C33.288 36.792 32.548 36.896 31.684 36.896H30.688ZM28.132 41V40.7H32.62V41H28.132ZM29.452 40.82V31.952H31.06V40.82H29.452ZM35.6991 41V40.7H36.6471V35.9H35.6991V35.6H37.9671V36.548H38.0151C38.2151 36.116 38.4431 35.828 38.6991 35.684C38.9631 35.532 39.2071 35.456 39.4311 35.456C39.6871 35.456 39.8871 35.532 40.0311 35.684C40.1831 35.828 40.2591 36.036 40.2591 36.308C40.2591 36.556 40.1831 36.74 40.0311 36.86C39.8871 36.972 39.7231 37.028 39.5391 37.028C39.3871 37.028 39.2471 36.988 39.1191 36.908C38.9991 36.82 38.9391 36.7 38.9391 36.548C38.9391 36.5 38.9431 36.46 38.9511 36.428C38.9671 36.388 38.9751 36.348 38.9751 36.308C38.9751 36.268 38.9631 36.232 38.9391 36.2C38.9151 36.168 38.8631 36.152 38.7831 36.152C38.6791 36.152 38.5631 36.236 38.4351 36.404C38.3071 36.564 38.1951 36.784 38.0991 37.064C38.0111 37.336 37.9671 37.64 37.9671 37.976V40.7H39.0471V41H35.6991ZM42.9342 41.144C42.5422 41.144 42.1742 41.064 41.8302 40.904C41.4942 40.744 41.1942 40.532 40.9302 40.268C40.6742 39.996 40.4742 39.692 40.3302 39.356C40.1862 39.012 40.1142 38.66 40.1142 38.3C40.1142 37.94 40.1862 37.592 40.3302 37.256C40.4742 36.912 40.6742 36.608 40.9302 36.344C41.1942 36.072 41.4942 35.856 41.8302 35.696C42.1742 35.536 42.5422 35.456 42.9342 35.456C43.3262 35.456 43.6902 35.536 44.0262 35.696C44.3702 35.856 44.6702 36.072 44.9262 36.344C45.1902 36.608 45.3942 36.912 45.5382 37.256C45.6822 37.592 45.7542 37.94 45.7542 38.3C45.7542 38.66 45.6822 39.012 45.5382 39.356C45.3942 39.692 45.1902 39.996 44.9262 40.268C44.6702 40.532 44.3702 40.744 44.0262 40.904C43.6902 41.064 43.3262 41.144 42.9342 41.144ZM42.9342 40.784C43.2382 40.784 43.4822 40.716 43.6662 40.58C43.8502 40.444 43.9822 40.2 44.0622 39.848C44.1502 39.488 44.1942 38.972 44.1942 38.3C44.1942 37.628 44.1502 37.112 44.0622 36.752C43.9822 36.392 43.8502 36.148 43.6662 36.02C43.4822 35.884 43.2382 35.816 42.9342 35.816C42.6302 35.816 42.3862 35.884 42.2022 36.02C42.0182 36.148 41.8822 36.392 41.7942 36.752C41.7142 37.112 41.6742 37.628 41.6742 38.3C41.6742 38.972 41.7142 39.488 41.7942 39.848C41.8822 40.2 42.0182 40.444 42.2022 40.58C42.3862 40.716 42.6302 40.784 42.9342 40.784ZM47.7187 41.156C47.3027 41.156 46.9907 41.072 46.7827 40.904C46.5827 40.736 46.4827 40.484 46.4827 40.148V35.912H45.5107V35.612C45.7907 35.588 46.0507 35.48 46.2907 35.288C46.5387 35.088 46.7627 34.836 46.9627 34.532C47.1707 34.228 47.3387 33.896 47.4667 33.536H47.8027V35.612H49.1827V35.912H47.8027V40.064C47.8027 40.424 47.9507 40.604 48.2467 40.604C48.4147 40.604 48.5667 40.548 48.7027 40.436C48.8467 40.316 48.9947 40.12 49.1467 39.848L49.3867 39.98C49.1867 40.42 48.9587 40.728 48.7027 40.904C48.4467 41.072 48.1187 41.156 47.7187 41.156ZM51.9632 41.144C51.5792 41.144 51.2152 41.068 50.8712 40.916C50.5352 40.756 50.2392 40.544 49.9832 40.28C49.7272 40.008 49.5272 39.704 49.3832 39.368C49.2392 39.024 49.1672 38.668 49.1672 38.3C49.1672 37.812 49.2792 37.352 49.5032 36.92C49.7352 36.488 50.0552 36.136 50.4632 35.864C50.8712 35.592 51.3512 35.456 51.9032 35.456C52.3352 35.456 52.7232 35.556 53.0672 35.756C53.4192 35.948 53.6952 36.22 53.8952 36.572C54.0952 36.924 54.1952 37.328 54.1952 37.784V37.856H50.2712V37.556H52.8032V36.872C52.8032 36.144 52.4832 35.78 51.8432 35.78C51.5792 35.78 51.3632 35.86 51.1952 36.02C51.0352 36.172 50.9152 36.432 50.8352 36.8C50.7632 37.168 50.7272 37.668 50.7272 38.3C50.7272 38.948 50.7672 39.452 50.8472 39.812C50.9272 40.172 51.0592 40.424 51.2432 40.568C51.4352 40.712 51.6872 40.784 51.9992 40.784C52.4232 40.784 52.7912 40.676 53.1032 40.46C53.4152 40.244 53.6792 39.868 53.8952 39.332H54.2312C54.0712 39.892 53.7872 40.336 53.3792 40.664C52.9792 40.984 52.5072 41.144 51.9632 41.144ZM57.2657 41.144C56.8817 41.144 56.5217 41.064 56.1857 40.904C55.8497 40.744 55.5537 40.528 55.2977 40.256C55.0417 39.984 54.8417 39.68 54.6977 39.344C54.5537 39 54.4817 38.648 54.4817 38.288C54.4817 37.936 54.5537 37.592 54.6977 37.256C54.8417 36.92 55.0417 36.616 55.2977 36.344C55.5537 36.072 55.8577 35.856 56.2097 35.696C56.5617 35.536 56.9457 35.456 57.3617 35.456C57.7137 35.456 58.0337 35.516 58.3217 35.636C58.6177 35.748 58.8497 35.908 59.0177 36.116C59.1937 36.316 59.2817 36.552 59.2817 36.824C59.2817 37.056 59.2137 37.24 59.0777 37.376C58.9417 37.512 58.7697 37.58 58.5617 37.58C58.3697 37.58 58.1977 37.524 58.0457 37.412C57.8937 37.3 57.8177 37.132 57.8177 36.908C57.8177 36.772 57.8417 36.668 57.8897 36.596C57.9377 36.524 57.9857 36.46 58.0337 36.404C58.0817 36.34 58.1057 36.26 58.1057 36.164C58.1057 36.028 58.0417 35.932 57.9137 35.876C57.7857 35.812 57.5977 35.78 57.3497 35.78C57.0377 35.78 56.7857 35.848 56.5937 35.984C56.4017 36.12 56.2617 36.372 56.1737 36.74C56.0857 37.1 56.0417 37.624 56.0417 38.312C56.0417 38.96 56.0817 39.464 56.1617 39.824C56.2417 40.184 56.3737 40.436 56.5577 40.58C56.7417 40.716 56.9897 40.784 57.3017 40.784C57.7417 40.784 58.1057 40.664 58.3937 40.424C58.6897 40.184 58.9457 39.78 59.1617 39.212H59.4977C59.3457 39.788 59.0777 40.256 58.6937 40.616C58.3177 40.968 57.8417 41.144 57.2657 41.144ZM61.4643 41.156C61.0483 41.156 60.7363 41.072 60.5283 40.904C60.3283 40.736 60.2283 40.484 60.2283 40.148V35.912H59.2563V35.612C59.5363 35.588 59.7963 35.48 60.0363 35.288C60.2843 35.088 60.5083 34.836 60.7083 34.532C60.9163 34.228 61.0843 33.896 61.2123 33.536H61.5483V35.612H62.9283V35.912H61.5483V40.064C61.5483 40.424 61.6963 40.604 61.9923 40.604C62.1603 40.604 62.3123 40.548 62.4483 40.436C62.5923 40.316 62.7403 40.12 62.8923 39.848L63.1323 39.98C62.9323 40.42 62.7043 40.728 62.4483 40.904C62.1923 41.072 61.8643 41.156 61.4643 41.156ZM63.8825 40.82V35.9H65.2025V40.82H63.8825ZM62.9345 41V40.7H66.1625V41H62.9345ZM62.8145 36.008V35.708H65.2025V36.008H62.8145ZM64.5185 33.824C64.3025 33.824 64.1145 33.748 63.9545 33.596C63.8025 33.436 63.7265 33.248 63.7265 33.032C63.7265 32.816 63.8025 32.632 63.9545 32.48C64.1145 32.32 64.3025 32.24 64.5185 32.24C64.7345 32.24 64.9185 32.32 65.0705 32.48C65.2305 32.632 65.3105 32.816 65.3105 33.032C65.3105 33.248 65.2305 33.436 65.0705 33.596C64.9185 33.748 64.7345 33.824 64.5185 33.824ZM69.0075 41.144C68.6155 41.144 68.2475 41.064 67.9035 40.904C67.5675 40.744 67.2675 40.532 67.0035 40.268C66.7475 39.996 66.5475 39.692 66.4035 39.356C66.2595 39.012 66.1875 38.66 66.1875 38.3C66.1875 37.94 66.2595 37.592 66.4035 37.256C66.5475 36.912 66.7475 36.608 67.0035 36.344C67.2675 36.072 67.5675 35.856 67.9035 35.696C68.2475 35.536 68.6155 35.456 69.0075 35.456C69.3995 35.456 69.7635 35.536 70.0995 35.696C70.4435 35.856 70.7435 36.072 70.9995 36.344C71.2635 36.608 71.4675 36.912 71.6115 37.256C71.7555 37.592 71.8275 37.94 71.8275 38.3C71.8275 38.66 71.7555 39.012 71.6115 39.356C71.4675 39.692 71.2635 39.996 70.9995 40.268C70.7435 40.532 70.4435 40.744 70.0995 40.904C69.7635 41.064 69.3995 41.144 69.0075 41.144ZM69.0075 40.784C69.3115 40.784 69.5555 40.716 69.7395 40.58C69.9235 40.444 70.0555 40.2 70.1355 39.848C70.2235 39.488 70.2675 38.972 70.2675 38.3C70.2675 37.628 70.2235 37.112 70.1355 36.752C70.0555 36.392 69.9235 36.148 69.7395 36.02C69.5555 35.884 69.3115 35.816 69.0075 35.816C68.7035 35.816 68.4595 35.884 68.2755 36.02C68.0915 36.148 67.9555 36.392 67.8675 36.752C67.7875 37.112 67.7475 37.628 67.7475 38.3C67.7475 38.972 67.7875 39.488 67.8675 39.848C67.9555 40.2 68.0915 40.444 68.2755 40.58C68.4595 40.716 68.7035 40.784 69.0075 40.784ZM76.3097 40.82V36.764C76.3097 36.164 76.0697 35.864 75.5897 35.864C75.3257 35.864 75.0817 35.972 74.8577 36.188C74.6417 36.404 74.4657 36.7 74.3297 37.076C74.2017 37.444 74.1377 37.864 74.1377 38.336L73.8977 36.596H74.1857C74.3537 36.268 74.5817 35.996 74.8697 35.78C75.1657 35.564 75.5457 35.456 76.0097 35.456C76.4817 35.456 76.8697 35.584 77.1737 35.84C77.4777 36.088 77.6297 36.396 77.6297 36.764V40.82H76.3097ZM71.8697 41V40.7H74.9177V41H71.8697ZM72.8177 40.82V35.792H74.1377V40.82H72.8177ZM75.3977 41V40.7H78.4457V41H75.3977ZM71.8697 35.9V35.6H74.1377V35.9H71.8697ZM29.92 54V53.7H31.48V45.252H30.568C30.192 45.268 29.872 45.404 29.608 45.66C29.344 45.908 29.14 46.228 28.996 46.62C28.852 47.012 28.776 47.436 28.768 47.892H28.348V44.952H36.124V47.892H35.704C35.696 47.42 35.616 46.984 35.464 46.584C35.312 46.184 35.096 45.864 34.816 45.624C34.544 45.376 34.208 45.252 33.808 45.252H33.088V53.7H34.648V54H29.92ZM37.8074 54.144C37.4234 54.144 37.0594 54.068 36.7154 53.916C36.3794 53.756 36.0834 53.544 35.8274 53.28C35.5714 53.008 35.3714 52.704 35.2274 52.368C35.0834 52.024 35.0114 51.668 35.0114 51.3C35.0114 50.812 35.1234 50.352 35.3474 49.92C35.5794 49.488 35.8994 49.136 36.3074 48.864C36.7154 48.592 37.1954 48.456 37.7474 48.456C38.1794 48.456 38.5674 48.556 38.9114 48.756C39.2634 48.948 39.5394 49.22 39.7394 49.572C39.9394 49.924 40.0394 50.328 40.0394 50.784V50.856H36.1154V50.556H38.6474V49.872C38.6474 49.144 38.3274 48.78 37.6874 48.78C37.4234 48.78 37.2074 48.86 37.0394 49.02C36.8794 49.172 36.7594 49.432 36.6794 49.8C36.6074 50.168 36.5714 50.668 36.5714 51.3C36.5714 51.948 36.6114 52.452 36.6914 52.812C36.7714 53.172 36.9034 53.424 37.0874 53.568C37.2794 53.712 37.5314 53.784 37.8434 53.784C38.2674 53.784 38.6354 53.676 38.9474 53.46C39.2594 53.244 39.5234 52.868 39.7394 52.332H40.0754C39.9154 52.892 39.6314 53.336 39.2234 53.664C38.8234 53.984 38.3514 54.144 37.8074 54.144ZM43.11 54.144C42.726 54.144 42.366 54.064 42.03 53.904C41.694 53.744 41.398 53.528 41.142 53.256C40.886 52.984 40.686 52.68 40.542 52.344C40.398 52 40.326 51.648 40.326 51.288C40.326 50.936 40.398 50.592 40.542 50.256C40.686 49.92 40.886 49.616 41.142 49.344C41.398 49.072 41.702 48.856 42.054 48.696C42.406 48.536 42.79 48.456 43.206 48.456C43.558 48.456 43.878 48.516 44.166 48.636C44.462 48.748 44.694 48.908 44.862 49.116C45.038 49.316 45.126 49.552 45.126 49.824C45.126 50.056 45.058 50.24 44.922 50.376C44.786 50.512 44.614 50.58 44.406 50.58C44.214 50.58 44.042 50.524 43.89 50.412C43.738 50.3 43.662 50.132 43.662 49.908C43.662 49.772 43.686 49.668 43.734 49.596C43.782 49.524 43.83 49.46 43.878 49.404C43.926 49.34 43.95 49.26 43.95 49.164C43.95 49.028 43.886 48.932 43.758 48.876C43.63 48.812 43.442 48.78 43.194 48.78C42.882 48.78 42.63 48.848 42.438 48.984C42.246 49.12 42.106 49.372 42.018 49.74C41.93 50.1 41.886 50.624 41.886 51.312C41.886 51.96 41.926 52.464 42.006 52.824C42.086 53.184 42.218 53.436 42.402 53.58C42.586 53.716 42.834 53.784 43.146 53.784C43.586 53.784 43.95 53.664 44.238 53.424C44.534 53.184 44.79 52.78 45.006 52.212H45.342C45.19 52.788 44.922 53.256 44.538 53.616C44.162 53.968 43.686 54.144 43.11 54.144ZM49.6148 53.82V49.764C49.6148 49.46 49.5468 49.236 49.4108 49.092C49.2828 48.94 49.0988 48.864 48.8588 48.864C48.5868 48.864 48.3348 48.972 48.1028 49.188C47.8788 49.404 47.6988 49.7 47.5628 50.076C47.4348 50.444 47.3708 50.864 47.3708 51.336L47.1308 49.596H47.4188C47.5948 49.268 47.8308 48.996 48.1268 48.78C48.4228 48.564 48.8068 48.456 49.2788 48.456C49.7668 48.456 50.1628 48.584 50.4668 48.84C50.7788 49.088 50.9348 49.396 50.9348 49.764V53.82H49.6148ZM45.1028 54V53.7H48.1508V54H45.1028ZM48.7028 54V53.7H51.7508V54H48.7028ZM46.0508 53.82V45.144H47.3708V53.82H46.0508ZM45.1028 45.252V44.952H47.3708V45.252H45.1028ZM54.6166 54V53.72H58.8466C59.2066 53.72 59.5099 53.62 59.7566 53.42C60.0099 53.22 60.2032 52.96 60.3366 52.64C60.4766 52.3133 60.5499 51.96 60.5566 51.58H60.9366V54H54.6166ZM55.6366 53.85V46.46H57.1366V53.85H55.6366ZM54.6166 46.74V46.46H58.3266V46.74H54.6166ZM60.6646 54V53.72H64.8946C65.2546 53.72 65.5579 53.62 65.8046 53.42C66.0579 53.22 66.2513 52.96 66.3846 52.64C66.5246 52.3133 66.5979 51.96 66.6046 51.58H66.9846V54H60.6646ZM61.6846 53.85V46.46H63.1846V53.85H61.6846ZM60.6646 46.74V46.46H64.3746V46.74H60.6646ZM70.5438 54.13C70.0305 54.13 69.5538 54.0267 69.1138 53.82C68.6805 53.6067 68.3038 53.3233 67.9838 52.97C67.6638 52.61 67.4138 52.1967 67.2338 51.73C67.0605 51.2633 66.9738 50.7733 66.9738 50.26C66.9738 49.7467 67.0605 49.2567 67.2338 48.79C67.4138 48.3233 67.6638 47.91 67.9838 47.55C68.3105 47.1833 68.6938 46.8933 69.1338 46.68C69.5738 46.4667 70.0538 46.36 70.5738 46.36C70.9138 46.36 71.2105 46.41 71.4638 46.51C71.7238 46.6033 71.9872 46.7533 72.2538 46.96L72.6738 46.46H72.9238V48.75H72.6438C72.5705 48.37 72.4505 48.0233 72.2838 47.71C72.1172 47.3967 71.8905 47.15 71.6038 46.97C71.3238 46.7833 70.9705 46.69 70.5438 46.69C70.2838 46.69 70.0438 46.74 69.8238 46.84C69.6105 46.9333 69.4238 47.11 69.2638 47.37C69.1105 47.63 68.9905 48 68.9038 48.48C68.8172 48.9533 68.7738 49.5733 68.7738 50.34C68.7738 51.04 68.8105 51.6167 68.8838 52.07C68.9572 52.5167 69.0705 52.8667 69.2238 53.12C69.3772 53.3733 69.5638 53.55 69.7838 53.65C70.0038 53.7433 70.2572 53.79 70.5438 53.79C71.0038 53.79 71.3838 53.7033 71.6838 53.53C71.9838 53.35 72.2205 53.1133 72.3938 52.82C72.5672 52.52 72.6905 52.1967 72.7638 51.85H73.0438V54H72.7638L72.3538 53.54C72.0738 53.7467 71.7805 53.8967 71.4738 53.99C71.1738 54.0833 70.8638 54.13 70.5438 54.13Z" fill="white"/>
</svg>
